<svg width="200" height="200" viewBox="0 0 200 200" fill="none" xmlns="http://www.w3.org/2000/svg">
<g id="Frame 1">
<g id="Crown">
<path id="Polygon 1" d="M166.663 82.7523L140.172 161.058H58.7459L34.2027 82.8433L56.6201 97.7746C57.5432 98.3895 58.7905 98.1357 59.3999 97.2089L74.5906 74.1071L96.6039 97.4763C97.3475 98.2657 98.5847 98.3186 99.393 97.5957L125.714 74.0534L139.51 97.1417C140.083 98.0999 141.329 98.4039 142.278 97.8173L166.663 82.7523Z" fill="#FFDF8C" stroke="black" stroke-width="2"/>
<path id="Ellipse 1" d="M42 76C42 81.5228 37.5228 86 32 86C26.4772 86 22 81.5228 22 76C22 70.4772 26.4772 66 32 66C37.5228 66 42 70.4772 42 76Z" fill="#FFDF8C" stroke="black" stroke-width="2"/>
<path id="Ellipse 2" d="M84 65C84 70.5228 79.5228 75 74 75C68.4772 75 64 70.5228 64 65C64 59.4772 68.4772 55 74 55C79.5228 55 84 59.4772 84 65Z" fill="#FFDF8C" stroke="black" stroke-width="2"/>
<path id="Ellipse 3" d="M136 65C136 70.5228 131.523 75 126 75C120.477 75 116 70.5228 116 65C116 59.4772 120.477 55 126 55C131.523 55 136 59.4772 136 65Z" fill="#FFDF8C" stroke="black" stroke-width="2"/>
<path id="Ellipse 4" d="M178 76C178 81.5228 173.523 86 168 86C162.477 86 158 81.5228 158 76C158 70.4772 162.477 66 168 66C173.523 66 178 70.4772 178 76Z" fill="#FFDF8C" stroke="black" stroke-width="2"/>
</g>
</g>
</svg>
