<svg width="100" height="100" viewBox="0 0 100 100" fill="none" xmlns="http://www.w3.org/2000/svg">
<g id="Sun-and-moons">
<g id="moon">
<path id="moon_2" fill-rule="evenodd" clip-rule="evenodd" d="M50.5 73C62.9264 73 73 62.9264 73 50.5C73 49.6864 72.9568 48.8828 72.8726 48.0916C71.8418 56.4937 64.6807 63 56 63C46.6112 63 39 55.3888 39 46C39 36.6112 46.6112 29 56 29C56.4418 29 56.8797 29.0169 57.313 29.05C55.1639 28.368 52.8749 28 50.5 28C38.0736 28 28 38.0736 28 50.5C28 62.9264 38.0736 73 50.5 73Z" fill="#FFE792"/>
</g>
<g id="Sun">
<circle id="Sun_inner" cx="50.5" cy="50.5" r="22.5" fill="#FFC703"/>
<circle id="Sun_outer" cx="50.5" cy="50.5" r="28.5" fill="#FF8D3B" fill-opacity="0.5"/>
</g>
<g id="Stars">
<path id="Star 1" d="M68.5 13L69.9593 17.4914H74.6819L70.8613 20.2672L72.3206 24.7586L68.5 21.9828L64.6794 24.7586L66.1387 20.2672L62.3181 17.4914H67.0407L68.5 13Z" fill="#FCFF68"/>
<path id="Star 2" d="M21 31L21.8981 33.7639H24.8042L22.4531 35.4721L23.3511 38.2361L21 36.5279L18.6489 38.2361L19.5469 35.4721L17.1958 33.7639H20.1019L21 31Z" fill="#FCFF68"/>
<path id="Star 3" d="M45 77L45.6735 78.7275H47.8532L46.0898 79.7951L46.7634 81.5225L45 80.4549L43.2366 81.5225L43.9102 79.7951L42.1468 78.7275H44.3265L45 77Z" fill="#FCFF68"/>
</g>
</g>
</svg>
